<!DOCTYPE svg PUBLIC "-//W3C//DTD SVG 1.1//EN" "http://www.w3.org/Graphics/SVG/1.1/DTD/svg11.dtd">

<!-- Uploaded to: SVG Repo, www.svgrepo.com, Transformed by: SVG Repo Mixer Tools -->
<svg fill="#bb6c11" version="1.1" id="Capa_1" xmlns="http://www.w3.org/2000/svg" xmlns:xlink="http://www.w3.org/1999/xlink" width="8px" height="8px" viewBox="0 0 517.748 517.748" xml:space="preserve" stroke="#bb6c11">

<g id="SVGRepo_bgCarrier" stroke-width="0"/>

<g id="SVGRepo_tracerCarrier" stroke-linecap="round" stroke-linejoin="round"/>

<g id="SVGRepo_iconCarrier"> <g> <g> <circle cx="91.208" cy="487.324" r="28.252"/> <circle cx="224.394" cy="487.324" r="28.252"/> <path d="M8.358,278.201l58.044,167.383c0.229,1.328,1.506,3.834,2.859,3.85h178.154c1.348,0.008,2.543-1.072,2.663-2.416 c0,0,0.125-194.075,0.125-195.323c0-1.243,1.095-2.443,2.443-2.443h21.526c1.353,0,2.442-1.095,2.442-2.443v-13.885 c0-1.353-1.095-2.443-2.442-2.443h-42.64c-1.353,0-2.443,1.095-2.443,2.443v40.004c0,1.354-1.095,2.449-2.443,2.449H10.39 C9.042,275.371,8.129,276.873,8.358,278.201z M230.165,416.619c0,1.348-1.095,2.443-2.443,2.443H78.624 c-1.353,0-2.443-1.096-2.443-2.443v-12.227c0-1.352,1.095-2.443,2.443-2.443h149.099c1.348,0,2.443,1.096,2.443,2.443V416.619z M230.165,384.049c0,1.35-1.095,2.443-2.443,2.443H65.398c-1.353,0-2.443-1.094-2.443-2.443v-12.225 c0-1.354,1.095-2.443,2.443-2.443h162.319c1.348,0,2.443,1.094,2.443,2.443v12.225H230.165z M230.165,351.775 c0,1.35-1.095,2.443-2.443,2.443H54.12c-1.353,0-2.443-1.094-2.443-2.443v-12.225c0-1.354,1.095-2.443,2.443-2.443h173.603 c1.348,0,2.443,1.094,2.443,2.443V351.775z M40.694,307.922c0-1.348,1.095-2.443,2.443-2.443h184.58 c1.348,0,2.443,1.096,2.443,2.443v12.227c0,1.348-1.095,2.443-2.443,2.443H43.137c-1.353,0-2.443-1.096-2.443-2.443V307.922z"/> <circle cx="365.202" cy="42.003" r="42.003"/> <path d="M468.066,501.83c2.376,9.543,10.939,15.918,20.349,15.918c1.684,0,3.391-0.201,5.093-0.627 c11.245-2.803,18.092-14.191,15.29-25.436l-52.67-211.322c5.546-1.826,15.366-8.311,12.556-28.563L439.991,94.521 c-0.909-4.972-5.427-8.31-10.099-7.458l-64.8,12.45c-0.521,0.072-1.033,0.172-1.549,0.282l-0.914,0.167 c-0.649,0.12-1.262,0.33-1.841,0.588c-5.297,1.898-9.858,5.833-12.35,11.375l-25.422,57.49c0,0-29.858,7.019-35.343,8.329 l-11.633,2.715c-11.289,2.635-18.308,13.918-15.668,25.202c2.257,9.687,10.887,16.223,20.42,16.223 c1.578,0,3.18-0.182,4.781-0.554l37.652-8.783c1.023-0.239,1.971-0.622,2.917-1l17.213-4.059 c6.449-1.563,11.81-6.015,14.534-12.073l9.549-21.167l17.246,97.188l-58.159,81.631c-2.247,3.15-3.577,6.865-3.845,10.729 l-9.094,131.514c-0.799,11.561,7.928,21.582,19.488,22.387c0.492,0.033,0.98,0.047,1.468,0.047 c10.931,0,20.148-8.467,20.918-19.541l8.688-125.607l53.125-74.555L468.066,501.83z"/> </g> </g> </g>

</svg>